ffmpeg started on 2025-06-06 at 20:05:31
Report written to "D:\Convert\FFMetrics\reports\psnr_report-6.txt"
Log level: 32
Command line:
ffmpeg -hide_banner -nostdin -i "G:\\\xc0\xed\xe8\xec\xe5\\\xce\xed\xe3\xee\xe8\xed\xe3\xe8\\!_36_\xce\xf1\xe5\xed\xfc_2024\\DreamCast\\\xd0\xee\xed \xca\xe0\xec\xee\xed\xee\xf5\xe0\xf1\xe8 - \xcd\xe5\xe2\xec\xe5\xed\xff\xe5\xec\xfb\xe9 \xe4\xe5\xf2\xe5\xea\xf2\xe8\xe2\\\xd2\xc2-2\\[DC] Kamonohashi Ron no Kindan Suiri 2nd Season - 06_Telegram_HEVC.mkv" -i "G:\\\xc0\xed\xe8\xec\xe5\\\xce\xed\xe3\xee\xe8\xed\xe3\xe8\\!_36_\xce\xf1\xe5\xed\xfc_2024\\DreamCast\\\xd0\xee\xed \xca\xe0\xec\xee\xed\xee\xf5\xe0\xf1\xe8 - \xcd\xe5\xe2\xec\xe5\xed\xff\xe5\xec\xfb\xe9 \xe4\xe5\xf2\xe5\xea\xf2\xe8\xe2\\\xd2\xc2-2\\[DC] Kamonohashi Ron no Kindan Suiri 2nd Season - 06_Telegram.mp4" -lavfi "[0:v]settb=AVTB,setpts=PTS-STARTPTS,format=pix_fmts=yuv420p10,fps=24000/1001,scale=1920:1080:flags=bicubic[main];[1:v]settb=AVTB,setpts=PTS-STARTPTS,format=pix_fmts=yuv420p,fps=24000/1001,scale=1920:1080:flags=bicubic[ref];[main][ref]psnr=eof_action=endall:stats_file='D\\:/Convert/FFMetrics/logs/psnr_logfile-6.txt'" -f null -
Input #0, matroska,webm, from 'G:\Аниме\Онгоинги\!_36_Осень_2024\DreamCast\Рон Камонохаси - Невменяемый детектив\ТВ-2\[DC] Kamonohashi Ron no Kindan Suiri 2nd Season - 06_Telegram_HEVC.mkv':
  Metadata:
    COMPATIBLE_BRANDS: isomiso2avc1mp41
    MAJOR_BRAND     : isom
    MINOR_VERSION   : 512
    ENCODER         : Lavf61.7.100
  Duration: 00:23:46.60, start: -0.021000, bitrate: 840 kb/s
  Stream #0:0: Video: hevc (Main 10), yuv420p10le(tv, bt709, progressive), 1920x1080 [SAR 1:1 DAR 16:9], 23.98 fps, 23.98 tbr, 1k tbn (default)
      Metadata:
        HANDLER_NAME    : VideoHandler
        VENDOR_ID       : [0][0][0][0]
        ENCODER         : Lavc61.19.100 libx265
        BPS             : 642554
        DURATION        : 00:23:46.508708333
        NUMBER_OF_FRAMES: 34202
        NUMBER_OF_BYTES : 114576168
        _STATISTICS_WRITING_APP: mkvpropedit v66.0.0 ('Josie') 64-bit
        _STATISTICS_WRITING_DATE_UTC: 2025-06-04 09:03:36
        _STATISTICS_TAGS: BPS DURATION NUMBER_OF_FRAMES NUMBER_OF_BYTES
  Stream #0:1: Audio: aac (LC), 48000 Hz, stereo, fltp (default)
      Metadata:
        HANDLER_NAME    : SoundHandler
        VENDOR_ID       : [0][0][0][0]
        ENCODER         : Lavc61.19.100 aac
        BPS             : 193427
        DURATION        : 00:23:46.602000000
        NUMBER_OF_FRAMES: 66873
        NUMBER_OF_BYTES : 34493012
        _STATISTICS_WRITING_APP: mkvpropedit v66.0.0 ('Josie') 64-bit
        _STATISTICS_WRITING_DATE_UTC: 2025-06-04 09:03:36
        _STATISTICS_TAGS: BPS DURATION NUMBER_OF_FRAMES NUMBER_OF_BYTES
Input #1, mov,mp4,m4a,3gp,3g2,mj2, from 'G:\Аниме\Онгоинги\!_36_Осень_2024\DreamCast\Рон Камонохаси - Невменяемый детектив\ТВ-2\[DC] Kamonohashi Ron no Kindan Suiri 2nd Season - 06_Telegram.mp4':
  Metadata:
    major_brand     : isom
    minor_version   : 512
    compatible_brands: isomiso2avc1mp41
    encoder         : Lavf61.1.100
  Duration: 00:23:46.57, start: 0.000000, bitrate: 3427 kb/s
  Stream #1:0[0x1](und): Video: h264 (High) (avc1 / 0x31637661), yuv420p(tv, bt709, progressive), 1920x1080 [SAR 1:1 DAR 16:9], 3279 kb/s, 23.98 fps, 23.98 tbr, 24k tbn (default)
      Metadata:
        handler_name    : VideoHandler
        vendor_id       : [0][0][0][0]
        encoder         : Lavc61.3.100 h264_qsv
  Stream #1:1[0x2](und): Audio: aac (HE-AACv2) (mp4a / 0x6134706D), 48000 Hz, stereo, fltp, 144 kb/s (default)
      Metadata:
        handler_name    : SoundHandler
        vendor_id       : [0][0][0][0]
Stream mapping:
  Stream #0:0 (hevc) -> settb:default
  Stream #1:0 (h264) -> settb:default
  psnr:default -> Stream #0:0 (wrapped_avframe)
  Stream #0:1 -> #0:1 (aac (native) -> pcm_s16le (native))
Output #0, null, to 'pipe:':
  Metadata:
    COMPATIBLE_BRANDS: isomiso2avc1mp41
    MAJOR_BRAND     : isom
    MINOR_VERSION   : 512
    encoder         : Lavf61.7.100
  Stream #0:0: Video: wrapped_avframe, yuv420p10le(tv, bt709, progressive), 1920x1080 [SAR 1:1 DAR 16:9], q=2-31, 200 kb/s, 23.98 fps, 23.98 tbn
      Metadata:
        encoder         : Lavc61.19.100 wrapped_avframe
  Stream #0:1: Audio: pcm_s16le, 48000 Hz, stereo, s16, 1536 kb/s (default)
      Metadata:
        HANDLER_NAME    : SoundHandler
        VENDOR_ID       : [0][0][0][0]
        _STATISTICS_TAGS: BPS DURATION NUMBER_OF_FRAMES NUMBER_OF_BYTES
        BPS             : 193427
        DURATION        : 00:23:46.602000000
        NUMBER_OF_FRAMES: 66873
        NUMBER_OF_BYTES : 34493012
        _STATISTICS_WRITING_APP: mkvpropedit v66.0.0 ('Josie') 64-bit
        _STATISTICS_WRITING_DATE_UTC: 2025-06-04 09:03:36
        encoder         : Lavc61.19.100 pcm_s16le
frame=  168 fps=0.0 q=-0.0 size=N/A time=00:00:07.00 bitrate=N/A speed=13.5x    frame=  419 fps=403 q=-0.0 size=N/A time=00:00:17.47 bitrate=N/A speed=16.8x    frame=  640 fps=412 q=-0.0 size=N/A time=00:00:26.69 bitrate=N/A speed=17.2x    frame=  899 fps=433 q=-0.0 size=N/A time=00:00:37.49 bitrate=N/A speed=18.1x    frame= 1164 fps=451 q=-0.0 size=N/A time=00:00:48.54 bitrate=N/A speed=18.8x    frame= 1397 fps=450 q=-0.0 size=N/A time=00:00:58.26 bitrate=N/A speed=18.8x    frame= 1637 fps=453 q=-0.0 size=N/A time=00:01:08.27 bitrate=N/A speed=18.9x    frame= 1895 fps=459 q=-0.0 size=N/A time=00:01:19.03 bitrate=N/A speed=19.2x    frame= 2153 fps=463 q=-0.0 size=N/A time=00:01:29.79 bitrate=N/A speed=19.3x    frame= 2393 fps=464 q=-0.0 size=N/A time=00:01:39.80 bitrate=N/A speed=19.3x    frame= 2647 fps=466 q=-0.0 size=N/A time=00:01:50.40 bitrate=N/A speed=19.4x    frame= 2872 fps=464 q=-0.0 size=N/A time=00:01:59.78 bitrate=N/A speed=19.3x    frame= 3114 fps=464 q=-0.0 size=N/A time=00:02:09.87 bitrate=N/A speed=19.3x    frame= 3359 fps=465 q=-0.0 size=N/A time=00:02:20.09 bitrate=N/A speed=19.4x    frame= 3621 fps=468 q=-0.0 size=N/A time=00:02:31.02 bitrate=N/A speed=19.5x    frame= 3858 fps=467 q=-0.0 size=N/A time=00:02:40.91 bitrate=N/A speed=19.5x    frame= 4053 fps=462 q=-0.0 size=N/A time=00:02:49.04 bitrate=N/A speed=19.3x    frame= 4247 fps=458 q=-0.0 size=N/A time=00:02:57.13 bitrate=N/A speed=19.1x    frame= 4451 fps=454 q=-0.0 size=N/A time=00:03:05.64 bitrate=N/A speed=18.9x    frame= 4685 fps=454 q=-0.0 size=N/A time=00:03:15.40 bitrate=N/A speed=18.9x    frame= 4936 fps=455 q=-0.0 size=N/A time=00:03:25.87 bitrate=N/A speed=  19x    frame= 5186 fps=457 q=-0.0 size=N/A time=00:03:36.29 bitrate=N/A speed=19.1x    frame= 5438 fps=458 q=-0.0 size=N/A time=00:03:46.80 bitrate=N/A speed=19.1x    frame= 5711 fps=462 q=-0.0 size=N/A time=00:03:58.19 bitrate=N/A speed=19.2x    frame= 5970 fps=463 q=-0.0 size=N/A time=00:04:08.99 bitrate=N/A speed=19.3x    frame= 6206 fps=462 q=-0.0 size=N/A time=00:04:18.84 bitrate=N/A speed=19.3x    frame= 6479 fps=465 q=-0.0 size=N/A time=00:04:30.22 bitrate=N/A speed=19.4x    frame= 6714 fps=465 q=-0.0 size=N/A time=00:04:40.02 bitrate=N/A speed=19.4x    frame= 6963 fps=465 q=-0.0 size=N/A time=00:04:50.41 bitrate=N/A speed=19.4x    frame= 7233 fps=467 q=-0.0 size=N/A time=00:05:01.67 bitrate=N/A speed=19.5x    frame= 7465 fps=467 q=-0.0 size=N/A time=00:05:11.35 bitrate=N/A speed=19.5x    frame= 7720 fps=468 q=-0.0 size=N/A time=00:05:21.98 bitrate=N/A speed=19.5x    frame= 7982 fps=469 q=-0.0 size=N/A time=00:05:32.91 bitrate=N/A speed=19.6x    frame= 8226 fps=469 q=-0.0 size=N/A time=00:05:43.09 bitrate=N/A speed=19.6x    frame= 8483 fps=470 q=-0.0 size=N/A time=00:05:53.81 bitrate=N/A speed=19.6x    frame= 8767 fps=472 q=-0.0 size=N/A time=00:06:05.65 bitrate=N/A speed=19.7x    frame= 9009 fps=472 q=-0.0 size=N/A time=00:06:15.75 bitrate=N/A speed=19.7x    frame= 9282 fps=473 q=-0.0 size=N/A time=00:06:27.13 bitrate=N/A speed=19.7x    frame= 9556 fps=475 q=-0.0 size=N/A time=00:06:38.56 bitrate=N/A speed=19.8x    frame= 9815 fps=476 q=-0.0 size=N/A time=00:06:49.36 bitrate=N/A speed=19.8x    frame=10067 fps=476 q=-0.0 size=N/A time=00:06:59.87 bitrate=N/A speed=19.9x    frame=10352 fps=478 q=-0.0 size=N/A time=00:07:11.76 bitrate=N/A speed=19.9x    frame=10621 fps=479 q=-0.0 size=N/A time=00:07:22.98 bitrate=N/A speed=  20x    frame=10861 fps=478 q=-0.0 size=N/A time=00:07:32.99 bitrate=N/A speed=  20x    frame=11118 fps=479 q=-0.0 size=N/A time=00:07:43.71 bitrate=N/A speed=  20x    frame=11392 fps=480 q=-0.0 size=N/A time=00:07:55.14 bitrate=N/A speed=  20x    frame=11667 fps=481 q=-0.0 size=N/A time=00:08:06.61 bitrate=N/A speed=20.1x    frame=11933 fps=482 q=-0.0 size=N/A time=00:08:17.70 bitrate=N/A speed=20.1x    frame=12193 fps=482 q=-0.0 size=N/A time=00:08:28.54 bitrate=N/A speed=20.1x    frame=12447 fps=483 q=-0.0 size=N/A time=00:08:39.14 bitrate=N/A speed=20.1x    frame=12706 fps=483 q=-0.0 size=N/A time=00:08:49.94 bitrate=N/A speed=20.1x    frame=12971 fps=484 q=-0.0 size=N/A time=00:09:00.99 bitrate=N/A speed=20.2x    frame=13237 fps=484 q=-0.0 size=N/A time=00:09:12.09 bitrate=N/A speed=20.2x    frame=13486 fps=484 q=-0.0 size=N/A time=00:09:22.47 bitrate=N/A speed=20.2x    frame=13741 fps=484 q=-0.0 size=N/A time=00:09:33.11 bitrate=N/A speed=20.2x    frame=14001 fps=485 q=-0.0 size=N/A time=00:09:43.95 bitrate=N/A speed=20.2x    frame=14284 fps=486 q=-0.0 size=N/A time=00:09:55.76 bitrate=N/A speed=20.3x    frame=14552 fps=486 q=-0.0 size=N/A time=00:10:06.93 bitrate=N/A speed=20.3x    frame=14838 fps=488 q=-0.0 size=N/A time=00:10:18.86 bitrate=N/A speed=20.3x    frame=15105 fps=488 q=-0.0 size=N/A time=00:10:30.00 bitrate=N/A speed=20.4x    frame=15357 fps=488 q=-0.0 size=N/A time=00:10:40.51 bitrate=N/A speed=20.4x    frame=15616 fps=488 q=-0.0 size=N/A time=00:10:51.31 bitrate=N/A speed=20.4x    frame=15867 fps=488 q=-0.0 size=N/A time=00:11:01.78 bitrate=N/A speed=20.4x    frame=16118 fps=488 q=-0.0 size=N/A time=00:11:12.25 bitrate=N/A speed=20.4x    frame=16371 fps=488 q=-0.0 size=N/A time=00:11:22.80 bitrate=N/A speed=20.4x    frame=16637 fps=489 q=-0.0 size=N/A time=00:11:33.90 bitrate=N/A speed=20.4x    frame=16856 fps=488 q=-0.0 size=N/A time=00:11:43.03 bitrate=N/A speed=20.3x    frame=17035 fps=486 q=-0.0 size=N/A time=00:11:50.50 bitrate=N/A speed=20.3x    frame=17255 fps=485 q=-0.0 size=N/A time=00:11:59.67 bitrate=N/A speed=20.2x    frame=17513 fps=485 q=-0.0 size=N/A time=00:12:10.43 bitrate=N/A speed=20.2x    frame=17757 fps=485 q=-0.0 size=N/A time=00:12:20.61 bitrate=N/A speed=20.2x    frame=17995 fps=485 q=-0.0 size=N/A time=00:12:30.54 bitrate=N/A speed=20.2x    frame=18224 fps=484 q=-0.0 size=N/A time=00:12:40.09 bitrate=N/A speed=20.2x    frame=18507 fps=485 q=-0.0 size=N/A time=00:12:51.89 bitrate=N/A speed=20.2x    frame=18773 fps=485 q=-0.0 size=N/A time=00:13:02.99 bitrate=N/A speed=20.2x    frame=19037 fps=485 q=-0.0 size=N/A time=00:13:14.00 bitrate=N/A speed=20.2x    frame=19296 fps=486 q=-0.0 size=N/A time=00:13:24.80 bitrate=N/A speed=20.3x    frame=19564 fps=486 q=-0.0 size=N/A time=00:13:35.98 bitrate=N/A speed=20.3x    frame=19812 fps=486 q=-0.0 size=N/A time=00:13:46.32 bitrate=N/A speed=20.3x    frame=20100 fps=487 q=-0.0 size=N/A time=00:13:58.33 bitrate=N/A speed=20.3x    frame=20364 fps=487 q=-0.0 size=N/A time=00:14:09.34 bitrate=N/A speed=20.3x    frame=20598 fps=487 q=-0.0 size=N/A time=00:14:19.10 bitrate=N/A speed=20.3x    frame=20870 fps=487 q=-0.0 size=N/A time=00:14:30.45 bitrate=N/A speed=20.3x    frame=21115 fps=487 q=-0.0 size=N/A time=00:14:40.67 bitrate=N/A speed=20.3x    frame=21384 fps=488 q=-0.0 size=N/A time=00:14:51.89 bitrate=N/A speed=20.3x    frame=21650 fps=488 q=-0.0 size=N/A time=00:15:02.98 bitrate=N/A speed=20.4x    frame=21885 fps=488 q=-0.0 size=N/A time=00:15:12.78 bitrate=N/A speed=20.3x    frame=22175 fps=488 q=-0.0 size=N/A time=00:15:24.88 bitrate=N/A speed=20.4x    frame=22445 fps=489 q=-0.0 size=N/A time=00:15:36.14 bitrate=N/A speed=20.4x    frame=22710 fps=489 q=-0.0 size=N/A time=00:15:47.19 bitrate=N/A speed=20.4x    frame=22954 fps=489 q=-0.0 size=N/A time=00:15:57.37 bitrate=N/A speed=20.4x    frame=23233 fps=489 q=-0.0 size=N/A time=00:16:09.00 bitrate=N/A speed=20.4x    frame=23511 fps=490 q=-0.0 size=N/A time=00:16:20.60 bitrate=N/A speed=20.4x    frame=23784 fps=490 q=-0.0 size=N/A time=00:16:31.99 bitrate=N/A speed=20.5x    frame=24023 fps=490 q=-0.0 size=N/A time=00:16:41.95 bitrate=N/A speed=20.4x    frame=24275 fps=490 q=-0.0 size=N/A time=00:16:52.46 bitrate=N/A speed=20.4x    frame=24502 fps=490 q=-0.0 size=N/A time=00:17:01.93 bitrate=N/A speed=20.4x    frame=24776 fps=490 q=-0.0 size=N/A time=00:17:13.36 bitrate=N/A speed=20.4x    frame=25032 fps=490 q=-0.0 size=N/A time=00:17:24.04 bitrate=N/A speed=20.4x    frame=25300 fps=490 q=-0.0 size=N/A time=00:17:35.22 bitrate=N/A speed=20.5x    frame=25574 fps=491 q=-0.0 size=N/A time=00:17:46.64 bitrate=N/A speed=20.5x    frame=25834 fps=491 q=-0.0 size=N/A time=00:17:57.49 bitrate=N/A speed=20.5x    frame=26113 fps=491 q=-0.0 size=N/A time=00:18:09.12 bitrate=N/A speed=20.5x    frame=26380 fps=492 q=-0.0 size=N/A time=00:18:20.26 bitrate=N/A speed=20.5x    frame=26632 fps=492 q=-0.0 size=N/A time=00:18:30.77 bitrate=N/A speed=20.5x    frame=26889 fps=492 q=-0.0 size=N/A time=00:18:41.49 bitrate=N/A speed=20.5x    frame=27155 fps=492 q=-0.0 size=N/A time=00:18:52.58 bitrate=N/A speed=20.5x    frame=27405 fps=492 q=-0.0 size=N/A time=00:19:03.01 bitrate=N/A speed=20.5x    frame=27684 fps=492 q=-0.0 size=N/A time=00:19:14.65 bitrate=N/A speed=20.5x    frame=27956 fps=493 q=-0.0 size=N/A time=00:19:25.99 bitrate=N/A speed=20.5x    frame=28235 fps=493 q=-0.0 size=N/A time=00:19:37.63 bitrate=N/A speed=20.6x    frame=28493 fps=493 q=-0.0 size=N/A time=00:19:48.39 bitrate=N/A speed=20.6x    frame=28767 fps=494 q=-0.0 size=N/A time=00:19:59.82 bitrate=N/A speed=20.6x    frame=29030 fps=494 q=-0.0 size=N/A time=00:20:10.79 bitrate=N/A speed=20.6x    frame=29306 fps=494 q=-0.0 size=N/A time=00:20:22.30 bitrate=N/A speed=20.6x    frame=29584 fps=494 q=-0.0 size=N/A time=00:20:33.89 bitrate=N/A speed=20.6x    frame=29858 fps=495 q=-0.0 size=N/A time=00:20:45.32 bitrate=N/A speed=20.6x    frame=30150 fps=495 q=-0.0 size=N/A time=00:20:57.50 bitrate=N/A speed=20.7x    frame=30407 fps=495 q=-0.0 size=N/A time=00:21:08.22 bitrate=N/A speed=20.7x    frame=30633 fps=495 q=-0.0 size=N/A time=00:21:17.65 bitrate=N/A speed=20.6x    frame=30882 fps=495 q=-0.0 size=N/A time=00:21:28.03 bitrate=N/A speed=20.6x    frame=31092 fps=494 q=-0.0 size=N/A time=00:21:36.79 bitrate=N/A speed=20.6x    frame=31340 fps=494 q=-0.0 size=N/A time=00:21:47.13 bitrate=N/A speed=20.6x    frame=31593 fps=494 q=-0.0 size=N/A time=00:21:57.69 bitrate=N/A speed=20.6x    frame=31859 fps=494 q=-0.0 size=N/A time=00:22:08.78 bitrate=N/A speed=20.6x    frame=32075 fps=494 q=-0.0 size=N/A time=00:22:17.79 bitrate=N/A speed=20.6x    frame=32355 fps=494 q=-0.0 size=N/A time=00:22:29.47 bitrate=N/A speed=20.6x    frame=32595 fps=494 q=-0.0 size=N/A time=00:22:39.48 bitrate=N/A speed=20.6x    frame=32869 fps=494 q=-0.0 size=N/A time=00:22:50.91 bitrate=N/A speed=20.6x    frame=33107 fps=494 q=-0.0 size=N/A time=00:23:00.83 bitrate=N/A speed=20.6x    frame=33305 fps=493 q=-0.0 size=N/A time=00:23:09.09 bitrate=N/A speed=20.6x    frame=33563 fps=493 q=-0.0 size=N/A time=00:23:19.85 bitrate=N/A speed=20.6x    frame=33828 fps=493 q=-0.0 size=N/A time=00:23:30.90 bitrate=N/A speed=20.6x    frame=34045 fps=492 q=-0.0 size=N/A time=00:23:39.96 bitrate=N/A speed=20.5x    [Parsed_psnr_10 @ 0000021e635a9ac0] PSNR y:49.457824 u:50.433228 v:51.260461 average:49.868101 min:42.760974 max:inf
[out#0/null @ 0000021e6356fb40] video:14696KiB audio:267492KiB subtitle:0KiB other streams:0KiB global headers:0KiB muxing overhead: unknown
frame=34202 fps=492 q=-0.0 Lsize=N/A time=00:23:46.50 bitrate=N/A speed=20.5x    
